<svg xmlns="http://www.w3.org/2000/svg" viewBox="0 0 24 24" fill="currentColor">
  <path d="M15.852 8.981h-4.588V0h4.588c2.476 0 4.487 2.01 4.487 4.49s-2.011 4.491-4.487 4.491zM12.264 4.5h3.588c1.665 0 3.013-1.35 3.013-3.011s-1.348-3.011-3.013-3.011h-3.588V4.5zm0 4.481H8.148c-2.476 0-4.487-2.01-4.487-4.49S5.672 0 8.148 0h4.116v8.981zm-4.116-4.49h3.588V1.489H8.148c-1.665 0-3.013 1.35-3.013 3.011S6.483 7.511 8.148 7.511zm4.116 4.019H8.148c-2.476 0-4.487-2.01-4.487-4.49h4.116c0 1.66 1.348 3.011 3.013 3.011h4.116v1.48zm-4.116 4.49c-1.665 0-3.013-1.35-3.013-3.011h3.013v3.011zm1.48-3.011h-1.48v3.011c0 1.66 1.348 3.011 3.013 3.011h4.116v-4.49h-4.116c-.75 0-1.449.23-2.033.624zm-2.033 2.142H5.661c0 2.48 2.011 4.49 4.487 4.49v-4.49c-.584-.395-1.283-.624-2.033-.624z"/>
</svg>

