<svg width="47" height="28" viewBox="0 0 47 28" fill="none" xmlns="http://www.w3.org/2000/svg">
<path d="M47 21.5385V23.6923H44.8636V25.8462H42.7273V28H40.5909V25.8462H38.4545V23.6923H36.3182V21.5385H34.1818V19.3846H32.0455V17.2308H29.9091V15.0769H27.7727V12.9231H25.6364V10.7692H21.3636V12.9231H19.2273V15.0769H17.0909V17.2308H14.9545V19.3846H12.8182V21.5385H10.6818V23.6923H8.54545V25.8462H6.40909V28H4.27273V25.8462H2.13636V23.6923H0V21.5385H2.13636V19.3846H4.27273V17.2308H6.40909V15.0769H8.54545V12.9231H10.6818V10.7692H12.8182V8.61539H14.9545V6.46154H17.0909V4.30769H19.2273V2.15385H21.3636V0H25.6364V2.15385H27.7727V4.30769H29.9091V6.46154H32.0455V8.61539H34.1818V10.7692H36.3182V12.9231H38.4545V15.0769H40.5909V17.2308H42.7273V19.3846H44.8636V21.5385H47Z" fill="#121B1C"/>
</svg>
